<?xml version="1.0" encoding="utf-8"?>
<!-- Generator: Adobe Illustrator 25.1.0, SVG Export Plug-In . SVG Version: 6.00 Build 0)  -->
<svg version="1.1" id="Layer_1" xmlns="http://www.w3.org/2000/svg" xmlns:xlink="http://www.w3.org/1999/xlink" x="0px" y="0px"
	 viewBox="0 0 16 20.9" style="enable-background:new 0 0 16 20.9;" xml:space="preserve">
<style type="text/css">
	.st0{opacity:0.6;fill:#FFFFFF;}
</style>
<path class="st0" d="M8.1,6.5c-0.7,0-1.9-0.8-3.1-0.8c-1.6,0-3,0.9-3.8,2.3c-1.6,2.8-0.4,7,1.2,9.3c0.8,1.1,1.7,2.4,2.9,2.3
	c1.2,0,1.6-0.8,3-0.8c1.4,0,1.8,0.8,3.1,0.7c1.3,0,2.1-1.1,2.8-2.3c0.9-1.3,1.3-2.6,1.3-2.6c0,0-2.4-0.9-2.5-3.7
	c0-2.3,1.9-3.5,2-3.5c-1.1-1.6-2.8-1.8-3.4-1.8C10.1,5.6,8.8,6.5,8.1,6.5z M10.7,4.2c0.6-0.8,1.1-1.9,1-2.9c-0.9,0-2.1,0.6-2.7,1.4
	C8.4,3.3,7.8,4.4,8,5.5C9,5.5,10.1,4.9,10.7,4.2"/>
</svg>
