<?xml version="1.0" encoding="utf-8"?>
<!-- Generator: Adobe Illustrator 25.1.0, SVG Export Plug-In . SVG Version: 6.00 Build 0)  -->
<svg version="1.1" id="Layer_1" xmlns="http://www.w3.org/2000/svg" xmlns:xlink="http://www.w3.org/1999/xlink" x="0px" y="0px"
	 viewBox="0 0 7 17.4" style="enable-background:new 0 0 7 17.4;" xml:space="preserve">
<style type="text/css">
	.st0{fill:none;}
	.st1{fill:#FFFFFF;}
</style>
<rect x="-5.5" y="-55.7" class="st0" width="18" height="88"/>
<path class="st1" d="M6.9,11.8L5,9.9c1-1.2,0.9-3-0.3-4s-3-0.9-4,0.3s-0.9,3,0.3,4c1.1,0.9,2.6,0.9,3.7,0l1.9,1.9
	c0.1,0.1,0.2,0.1,0.3,0S7,11.9,6.9,11.8C6.9,11.8,6.9,11.8,6.9,11.8L6.9,11.8z M0.5,8.1c0-1.3,1.1-2.4,2.4-2.4s2.4,1.1,2.4,2.4
	c0,1.3-1.1,2.4-2.4,2.4C1.5,10.4,0.5,9.4,0.5,8.1z"/>
</svg>
